<svg class="icon" xmlns="http://www.w3.org/2000/svg" viewBox="0 0 100 100" fill="#eeeffe">
    <g>
        <path d="M66,23.3H18.7c-0.4,0-0.7,0.3-0.7,0.7v8c0,10.8,7,20,16.7,23.3H26.7c-0.4,0-0.7,0.3-0.7,0.7s0.3,0.7,0.7,0.7h32c0.4,0,0.7-0.3,0.7-0.7s-0.3-0.7-0.7-0.7h-8C60,52,67,42.8,67,32v-8C67,23.6,66.7,23.3,66,23.3z M66,32c0,12.9-10.5,23.3-23.3,23.3S19.3,44.9,19.3,32v-7.3h46.7V32z" stroke="#234560"/>
        <path d="M42.7,16.7c0.4,0,0.7-0.3,0.7-0.7V10.7c0-0.4-0.3-0.7-0.7-0.7s-0.7,0.3-0.7,0.7v5.3C42,16.3,42.3,16.7,42.7,16.7z" stroke="#234a60"/>
        <path d="M29.3,16.7c0.4,0,0.7-0.3,0.7-0.7v-2.7c0-0.4-0.3-0.7-0.7-0.7s-0.7,0.3-0.7,0.7v2.7C28.7,16.3,29,16.7,29.3,16.7z" stroke="#234a60"/>
        <path d="M56,16.7c0.4,0,0.7-0.3,0.7-0.7v-2.7c0-0.4-0.3-0.7-0.7-0.7s-0.7,0.3-0.7,0.7v2.7C55.3,16.3,55.6,16.7,56,16.7z" stroke="#234a60"/>
        <path d="M61.3,68.7H37.3c-0.1-2.5-1.1-5.3-6-5.3c-4.8,0-8.7,2.7-8.7,6s3.9,6,8.7,6c4.9,0,5.9-2.9,6-5.3H61.3c0.4,0,0.7-0.3,0.7-0.7S61.7,68.7,61.3,68.7z M32,74c-4,0-7.3-2.1-7.3-4.7s3.3-4.7,7.3-4.7c3.9,0,4.7,1.9,4.7,4.7S35.9,74,32,74z" stroke="#234a60"/>
    </g>
</svg>
